<svg xmlns="http://www.w3.org/2000/svg" width="640" height="640" viewBox="0 0 640 640">
  <defs>
    <linearGradient id="bg" x1="0" x2="1" y1="0" y2="1">
      <stop offset="0" stop-color="#38bdf8"/>
      <stop offset=".52" stop-color="#6366f1"/>
      <stop offset="1" stop-color="#8b5cf6"/>
    </linearGradient>
    <radialGradient id="glow" cx=".32" cy=".2" r=".8">
      <stop offset="0" stop-color="#ffffff" stop-opacity=".4"/>
      <stop offset="1" stop-color="#ffffff" stop-opacity="0"/>
    </radialGradient>
  </defs>
  <rect width="640" height="640" rx="120" fill="#0f172a"/>
  <rect width="640" height="640" rx="120" fill="url(#bg)" opacity=".9"/>
  <rect width="640" height="640" rx="120" fill="url(#glow)"/>
  <circle cx="320" cy="246" r="98" fill="#e0f2fe" opacity=".92"/>
  <path d="M158 514c24-94 86-145 162-145s138 51 162 145c7 27-14 54-42 54H200c-28 0-49-27-42-54z" fill="#e0f2fe" opacity=".92"/>
  <path d="M122 126c66-48 139-72 218-72 54 0 106 11 156 33" fill="none" stroke="#ffffff" stroke-width="10" stroke-linecap="round" opacity=".25"/>
</svg>
